<?xml version="1.0" encoding="UTF-8" standalone="no"?>
<svg
   xmlns:dc="http://purl.org/dc/elements/1.1/"
   xmlns:cc="http://creativecommons.org/ns#"
   xmlns:rdf="http://www.w3.org/1999/02/22-rdf-syntax-ns#"
   xmlns:svg="http://www.w3.org/2000/svg"
   xmlns="http://www.w3.org/2000/svg"
   viewBox="0 0 61.333332 61.333332"
   height="61.333332"
   width="61.333332"
   xml:space="preserve"
   id="svg2"
   version="1.1"><metadata
     id="metadata8"><rdf:RDF><cc:Work
         rdf:about=""><dc:format>image/svg+xml</dc:format><dc:type
           rdf:resource="http://purl.org/dc/dcmitype/StillImage" /><dc:title></dc:title></cc:Work></rdf:RDF></metadata><defs
     id="defs6"><clipPath
       id="clipPath24"
       clipPathUnits="userSpaceOnUse"><path
         style="clip-rule:evenodd"
         id="path22"
         d="M 49.9727,430 C 38.9414,430 30,421.086 30,410.027 V 49.9727 C 30,38.9414 38.9141,30 49.9727,30 H 410.027 C 421.059,30 430,38.9141 430,49.9727 V 410.027 C 430,421.059 421.086,430 410.027,430 Z" /></clipPath><clipPath
       id="clipPath30"
       clipPathUnits="userSpaceOnUse"><path
         id="path28"
         d="M 0,0 H 460 V 460 H 0 Z" /></clipPath><clipPath
       id="clipPath40"
       clipPathUnits="userSpaceOnUse"><path
         style="clip-rule:evenodd"
         id="path38"
         d="m 316.398,227.953 c 0,6.383 -0.57,12.52 -1.636,18.41 H 230 v -34.812 h 48.438 c -2.086,-11.25 -8.43,-20.781 -17.961,-27.164 v -22.582 h 29.086 c 17.019,15.668 26.835,38.742 26.835,66.148 z" /></clipPath><clipPath
       id="clipPath46"
       clipPathUnits="userSpaceOnUse"><path
         id="path44"
         d="M 0,0 H 460 V 460 H 0 Z" /></clipPath><clipPath
       id="clipPath56"
       clipPathUnits="userSpaceOnUse"><path
         style="clip-rule:evenodd"
         id="path54"
         d="m 230,140 c 24.301,0 44.672,8.059 59.563,21.805 l -29.086,22.582 c -8.059,-5.399 -18.368,-8.59 -30.477,-8.59 -23.441,0 -43.281,15.832 -50.359,37.101 H 149.574 V 189.582 C 164.383,160.168 194.816,140 230,140 Z" /></clipPath><clipPath
       id="clipPath62"
       clipPathUnits="userSpaceOnUse"><path
         id="path60"
         d="M 0,0 H 460 V 460 H 0 Z" /></clipPath><clipPath
       id="clipPath72"
       clipPathUnits="userSpaceOnUse"><path
         style="clip-rule:evenodd"
         id="path70"
         d="m 179.641,212.898 c -1.801,5.403 -2.825,11.168 -2.825,17.102 0,5.934 1.024,11.699 2.825,17.102 v 23.316 H 149.574 C 143.477,258.27 140,244.523 140,230 c 0,-14.523 3.477,-28.27 9.574,-40.418 l 30.067,23.316 z" /></clipPath><clipPath
       id="clipPath78"
       clipPathUnits="userSpaceOnUse"><path
         id="path76"
         d="M 0,0 H 460 V 460 H 0 Z" /></clipPath><clipPath
       id="clipPath88"
       clipPathUnits="userSpaceOnUse"><path
         style="clip-rule:evenodd"
         id="path86"
         d="m 230,284.203 c 13.215,0 25.078,-4.539 34.406,-13.457 l 25.813,25.813 C 274.633,311.082 254.258,320 230,320 c -35.184,0 -65.617,-20.168 -80.426,-49.582 l 30.067,-23.316 c 7.078,21.269 26.918,37.101 50.359,37.101 z" /></clipPath><clipPath
       id="clipPath94"
       clipPathUnits="userSpaceOnUse"><path
         id="path92"
         d="M 0,0 H 460 V 460 H 0 Z" /></clipPath></defs><g
     transform="matrix(1.3333333,0,0,-1.3333333,0,61.333333)"
     id="g10"><g
       transform="scale(0.1)"
       id="g12"><g
         transform="matrix(440,0,0,440,0,9.99999)"
         id="g14" /><g
         id="g18"><g
           clip-path="url(#clipPath24)"
           id="g20"><g
             clip-path="url(#clipPath30)"
             id="g26"><path
               id="path32"
               style="fill:#ffffff;fill-opacity:1;fill-rule:nonzero;stroke:none"
               d="M -13.644068,-13.644071 480,0 V 480 H 0 Z" /></g></g></g><g
         id="g34"><g
           clip-path="url(#clipPath40)"
           id="g36"><g
             clip-path="url(#clipPath46)"
             id="g42"><path
               id="path48"
               style="fill:#3f84f6;fill-opacity:1;fill-rule:nonzero;stroke:none"
               d="M 180,111.805 H 366.398 V 296.364 H 180 Z" /></g></g></g><g
         id="g50"><g
           clip-path="url(#clipPath56)"
           id="g52"><g
             clip-path="url(#clipPath62)"
             id="g58"><path
               id="path64"
               style="fill:#36a850;fill-opacity:1;fill-rule:nonzero;stroke:none"
               d="m 99.5742,90 h 239.988 V 262.898 H 99.5742 Z" /></g></g></g><g
         id="g66"><g
           clip-path="url(#clipPath72)"
           id="g68"><g
             clip-path="url(#clipPath78)"
             id="g74"><path
               id="path80"
               style="fill:#fcbc00;fill-opacity:1;fill-rule:nonzero;stroke:none"
               d="M 90,139.582 H 229.641 V 320.418 H 90 Z" /></g></g></g><g
         id="g82"><g
           clip-path="url(#clipPath88)"
           id="g84"><g
             clip-path="url(#clipPath94)"
             id="g90"><path
               id="path96"
               style="fill:#eb4233;fill-opacity:1;fill-rule:nonzero;stroke:none"
               d="m 99.5742,197.102 h 240.645 V 370 H 99.5742 Z" /></g></g></g></g></g></svg>