<?xml version="1.0" encoding="UTF-8" ?>
<!DOCTYPE svg PUBLIC "-//W3C//DTD SVG 1.1//EN" "http://www.w3.org/Graphics/SVG/1.1/DTD/svg11.dtd">
<svg  viewBox="0 0 899 208" version="1.1" xmlns="http://www.w3.org/2000/svg">
<g id="#03a9f4ff">
<path fill="#03a9f4" opacity="1.00" d=" M 0.00 0.00 L 899.00 0.00 L 899.00 208.00 L 0.00 208.00 L 0.00 0.00 M 32.18 18.16 C 14.80 28.42 1.29 48.03 4.32 68.91 C 6.58 85.50 18.30 99.28 32.23 107.79 C 47.73 119.38 62.76 131.59 78.19 143.26 C 78.32 135.86 78.22 128.45 78.24 121.04 C 86.66 121.23 95.07 120.42 103.33 118.81 C 101.80 105.88 105.20 92.50 112.86 81.96 C 123.61 66.91 140.43 57.21 158.05 52.41 C 154.68 38.44 144.64 26.94 132.81 19.23 C 103.03 0.30 62.39 0.03 32.18 18.16 M 295.74 20.78 C 290.03 28.10 289.37 38.80 294.26 46.72 C 301.59 58.75 314.88 65.99 321.18 78.79 C 325.81 88.34 326.47 100.57 320.85 109.86 C 315.24 119.16 299.86 118.96 294.18 109.86 C 291.11 104.54 291.44 97.59 294.24 92.23 C 297.43 86.62 304.26 84.99 310.21 84.34 C 309.72 80.95 307.16 78.06 303.85 77.17 C 293.69 74.30 281.18 78.71 276.74 88.70 C 272.83 98.30 274.23 111.43 283.28 117.73 C 291.52 123.65 302.14 124.50 311.97 124.24 C 323.63 123.86 335.86 119.72 343.40 110.42 C 353.14 98.18 353.12 79.90 345.26 66.73 C 338.60 55.60 326.30 49.53 319.14 38.84 C 314.98 32.16 313.54 21.77 320.11 16.12 C 325.65 11.90 335.22 11.24 339.85 17.11 C 344.01 23.87 340.37 32.52 334.73 37.22 C 339.10 41.91 347.14 40.81 350.93 35.95 C 357.66 27.49 355.36 12.45 344.67 8.33 C 328.05 1.85 306.84 6.35 295.74 20.78 M 465.75 13.73 C 452.67 24.02 446.82 41.82 449.20 58.04 C 450.63 66.71 455.79 75.90 464.82 78.28 C 473.32 80.38 483.60 78.32 489.33 71.34 C 492.97 67.15 492.18 60.89 488.66 56.91 C 486.52 64.98 473.86 70.45 468.91 62.07 C 463.56 48.66 467.69 32.51 476.46 21.45 C 480.96 14.98 491.96 13.57 496.78 20.32 C 500.52 26.47 500.21 34.05 500.25 40.99 C 499.52 57.23 497.49 73.62 492.02 89.00 C 488.50 98.43 483.32 108.24 474.06 113.09 C 470.05 115.15 464.12 116.02 461.07 111.92 C 458.24 108.73 458.68 104.09 460.75 100.64 C 454.89 101.05 447.55 104.11 447.52 110.99 C 447.99 119.16 456.62 123.87 464.02 124.20 C 480.32 125.50 495.93 116.10 504.49 102.55 C 516.92 83.33 520.16 59.65 519.47 37.18 C 518.98 26.65 515.61 14.67 505.72 9.25 C 493.09 2.70 476.75 4.86 465.75 13.73 M 615.21 11.48 C 605.58 10.79 598.95 22.80 604.29 30.68 C 608.70 38.41 621.13 38.21 625.51 30.54 C 630.67 22.89 624.41 11.40 615.21 11.48 M 545.31 46.44 C 542.39 58.68 539.54 71.18 533.43 82.30 C 522.47 85.09 520.40 98.45 521.82 108.01 C 522.50 115.95 529.54 121.61 537.11 122.61 C 549.50 124.68 564.91 124.03 573.22 113.18 C 576.69 107.06 582.80 103.29 587.94 98.72 C 586.70 105.76 586.40 114.49 592.56 119.41 C 599.51 124.53 609.81 124.99 616.99 120.00 C 627.37 113.37 635.80 104.17 644.02 95.11 C 632.70 94.54 627.89 110.49 615.95 109.13 C 611.65 109.27 609.10 104.99 610.29 101.09 C 613.91 82.27 618.21 63.58 622.02 44.79 C 614.45 44.78 606.88 44.60 599.33 44.90 C 596.29 59.73 593.19 74.55 589.92 89.32 C 585.60 91.85 582.73 96.11 578.84 99.18 C 579.95 83.95 570.87 70.76 568.98 56.03 C 568.22 51.30 568.23 46.51 567.92 41.75 C 560.37 43.24 552.84 44.83 545.31 46.44 M 380.42 50.38 C 366.51 59.42 361.22 76.63 359.37 92.29 C 358.74 100.49 357.31 109.65 362.05 116.97 C 366.21 123.45 374.80 125.42 382.00 124.09 C 389.32 122.79 395.01 117.45 399.49 111.85 C 402.77 123.39 418.28 126.50 427.69 120.72 C 438.75 114.19 447.30 104.35 456.05 95.13 C 447.29 94.05 443.26 103.87 436.03 107.07 C 431.40 110.89 420.47 109.88 422.11 101.96 C 425.60 82.82 430.12 63.87 433.93 44.79 C 426.40 44.79 418.87 44.60 411.34 44.90 C 411.02 46.15 410.70 47.41 410.38 48.68 C 401.42 42.37 389.18 45.10 380.42 50.38 M 688.28 44.83 C 682.77 71.04 677.14 97.23 671.69 123.45 C 679.19 123.56 686.70 123.48 694.21 123.50 C 698.62 103.36 702.83 83.18 707.09 63.01 C 707.43 57.85 713.87 56.58 718.06 56.74 C 723.77 57.27 725.34 64.24 724.28 68.94 C 720.62 87.14 716.55 105.25 712.87 123.45 C 720.49 123.45 728.12 123.71 735.74 123.31 C 739.31 105.18 743.32 87.13 747.06 69.03 C 747.78 65.77 747.34 62.42 746.97 59.15 C 750.55 57.40 754.76 55.76 758.72 57.28 C 762.86 59.45 763.54 64.79 762.78 68.96 C 760.76 79.36 758.37 89.70 756.31 100.09 C 755.32 105.79 755.26 112.28 758.84 117.14 C 762.95 122.63 770.53 123.91 776.97 123.35 C 784.72 121.94 790.19 115.73 795.67 110.59 C 797.39 116.65 801.69 122.27 808.11 123.67 C 818.92 127.02 829.78 120.54 835.93 111.87 C 839.42 123.51 855.11 126.56 864.57 120.51 C 875.36 113.93 883.90 104.37 892.42 95.19 C 883.87 94.04 879.88 103.73 872.85 106.90 C 868.22 110.76 857.16 110.13 858.61 102.08 C 862.06 82.89 866.64 63.91 870.44 44.78 C 862.94 44.73 855.45 44.74 847.96 44.77 C 847.59 46.10 847.23 47.43 846.88 48.76 C 836.13 41.31 821.13 46.01 812.07 54.08 C 798.80 66.88 795.75 86.31 795.03 103.90 C 792.15 108.19 786.51 112.24 781.21 109.87 C 778.11 108.15 778.24 104.06 778.79 101.03 C 780.90 90.00 783.57 79.08 785.72 68.06 C 787.73 57.61 779.68 46.16 769.06 44.92 C 759.99 44.53 752.09 49.94 745.10 55.07 C 741.62 49.98 736.55 45.18 730.05 44.89 C 722.28 44.63 715.49 49.01 709.18 53.00 C 709.79 50.27 710.36 47.54 710.90 44.81 C 703.36 44.73 695.82 44.69 688.28 44.83 M 138.68 65.70 C 125.64 72.94 114.41 84.44 109.82 98.86 C 105.30 113.10 109.16 129.11 118.27 140.71 C 134.95 161.86 162.93 170.15 188.99 170.08 C 189.00 177.37 188.93 184.66 189.02 191.94 C 204.11 180.41 218.94 168.52 234.20 157.22 C 246.75 149.53 257.79 138.22 261.73 123.69 C 265.54 110.51 262.61 95.63 254.28 84.75 C 243.30 69.13 225.22 60.03 206.95 55.95 C 183.97 51.32 159.23 54.08 138.68 65.70 M 649.32 99.39 C 639.65 100.80 635.69 114.54 643.20 120.84 C 649.56 127.20 661.77 123.70 663.75 114.91 C 666.34 106.46 657.95 97.38 649.32 99.39 M 492.15 159.13 C 489.17 163.72 490.55 169.47 490.22 174.61 C 488.95 174.75 487.70 174.88 486.44 175.02 C 486.47 177.22 486.49 179.43 486.49 181.64 C 487.72 181.71 488.97 181.79 490.22 181.87 C 490.28 188.24 490.23 194.62 490.24 200.99 C 493.24 201.04 496.23 201.05 499.24 201.01 C 499.27 194.60 499.24 188.19 499.25 181.78 C 501.30 181.77 503.34 181.78 505.40 181.79 C 505.47 179.45 505.51 177.12 505.50 174.78 C 503.42 174.75 501.34 174.75 499.27 174.73 C 499.43 170.95 498.57 166.94 500.16 163.36 C 501.97 163.31 503.79 163.18 505.60 162.97 C 505.52 160.74 505.49 158.51 505.49 156.28 C 501.01 156.42 495.35 155.07 492.15 159.13 M 344.15 175.15 C 340.10 187.43 350.72 202.60 364.00 201.24 C 371.92 200.93 379.85 201.10 387.77 200.99 C 387.75 198.72 387.75 196.45 387.74 194.19 C 384.82 194.06 381.89 194.38 379.25 195.74 C 389.11 186.41 386.50 168.78 374.54 162.53 C 363.32 155.50 347.52 162.72 344.15 175.15 M 396.30 164.35 C 393.61 168.49 395.06 173.76 398.01 177.33 C 391.14 180.87 387.24 189.98 392.34 196.62 C 397.43 203.56 408.67 202.54 414.48 197.00 C 416.65 202.58 422.78 201.08 427.52 201.06 C 424.97 197.75 422.22 194.60 419.75 191.24 C 421.40 189.43 422.92 187.51 424.22 185.43 C 422.46 183.79 420.74 182.12 419.03 180.44 C 417.65 182.07 416.27 183.70 414.89 185.33 C 413.00 183.14 411.15 180.92 409.34 178.67 C 412.97 175.99 416.45 171.84 415.06 166.99 C 413.22 158.70 400.50 157.27 396.30 164.35 M 445.03 160.51 C 439.56 174.01 434.05 187.49 428.62 201.00 C 431.81 201.04 435.00 201.05 438.19 201.05 C 439.23 198.38 440.22 195.70 441.17 193.00 C 446.35 193.01 451.53 192.95 456.71 193.06 C 457.61 195.68 458.53 198.30 459.41 200.93 C 462.65 201.05 465.89 201.07 469.14 201.01 C 463.75 187.49 458.20 174.04 452.79 160.53 C 450.20 160.50 447.61 160.50 445.03 160.51 M 587.13 160.54 C 584.57 174.04 581.88 187.50 579.33 200.99 C 582.62 201.05 585.91 201.05 589.21 201.02 C 591.00 192.08 591.85 182.92 594.16 174.10 C 596.93 183.01 599.23 192.07 601.91 201.01 C 604.90 201.04 607.89 201.05 610.89 201.02 C 613.60 191.86 616.06 182.64 618.74 173.47 C 620.61 182.58 621.97 191.77 623.53 200.93 C 626.86 201.05 630.18 201.07 633.52 201.02 C 630.93 187.56 628.21 174.12 625.75 160.64 C 622.14 160.42 618.52 160.47 614.91 160.53 C 612.03 169.94 609.34 179.42 606.52 188.86 C 603.36 179.50 600.86 169.94 597.92 160.52 C 594.32 160.48 590.72 160.48 587.13 160.54 M 520.42 174.58 C 514.36 175.53 508.98 180.69 508.72 186.98 C 507.99 193.06 512.03 199.39 518.03 200.89 C 521.95 201.36 525.99 201.44 529.90 200.81 C 537.39 198.56 540.93 189.25 537.60 182.37 C 534.70 176.03 526.98 173.26 520.42 174.58 M 553.69 177.44 C 553.58 176.76 553.36 175.42 553.24 174.74 C 550.29 174.70 547.34 174.68 544.41 174.97 C 544.59 183.63 544.47 192.30 544.47 200.96 C 547.49 201.05 550.51 201.05 553.53 200.96 C 553.75 195.73 552.81 190.33 554.26 185.24 C 555.61 181.59 560.11 180.66 563.30 182.52 C 563.24 179.92 563.24 177.32 563.29 174.72 C 559.77 173.37 556.28 175.08 553.69 177.44 M 648.38 174.50 C 638.78 175.28 632.59 186.95 637.88 195.18 C 641.81 202.18 650.85 201.91 657.70 200.64 C 664.46 198.34 667.93 190.12 665.41 183.55 C 663.16 176.70 655.16 173.28 648.38 174.50 M 681.03 177.65 C 681.00 176.93 680.94 175.48 680.92 174.76 C 677.94 174.74 674.98 174.74 672.01 174.77 C 671.99 183.52 671.99 192.26 672.01 201.01 C 675.00 201.04 677.99 201.04 680.99 201.01 C 681.18 196.09 680.61 191.11 681.28 186.22 C 682.34 181.97 687.25 180.28 690.87 182.63 C 690.78 179.87 690.74 177.11 690.60 174.35 C 687.00 173.75 683.47 174.93 681.03 177.65 M 705.40 174.52 C 699.28 175.51 693.69 180.58 693.48 187.01 C 692.74 193.15 696.94 199.57 703.04 200.92 C 706.96 201.35 711.00 201.49 714.89 200.72 C 722.16 198.41 725.60 189.34 722.46 182.56 C 719.69 176.16 711.96 173.30 705.40 174.52 M 731.14 179.18 C 725.61 185.33 727.34 196.43 734.91 200.13 C 742.91 203.05 755.19 201.68 757.04 191.55 C 754.27 191.50 751.53 191.48 748.78 191.46 C 747.12 194.01 744.34 195.89 741.19 194.88 C 736.23 192.72 736.24 184.38 740.71 181.70 C 744.00 180.14 747.58 182.37 748.72 185.59 C 751.57 185.52 754.43 185.50 757.29 185.43 C 755.67 173.44 738.34 170.56 731.14 179.18 M 764.73 178.77 C 758.82 184.76 760.33 196.19 767.95 200.04 C 776.01 203.11 788.31 201.72 790.29 191.57 C 787.48 191.49 784.68 191.48 781.87 191.50 C 780.20 194.95 775.28 196.48 772.42 193.57 C 769.29 189.82 770.18 181.44 776.10 181.23 C 778.95 180.91 780.71 183.24 781.84 185.51 C 784.71 185.52 787.58 185.51 790.46 185.44 C 789.00 173.64 772.05 170.60 764.73 178.77 M 806.40 174.53 C 800.51 175.42 795.12 180.07 794.44 186.17 C 793.35 192.56 797.58 199.46 803.95 200.95 C 807.85 201.31 811.87 201.51 815.74 200.73 C 823.52 198.33 826.89 188.15 822.71 181.34 C 819.54 175.77 812.50 173.40 806.40 174.53 Z" />
<path fill="#03a9f4" opacity="1.00" d=" M 61.25 37.62 C 69.34 28.68 83.73 25.69 94.37 31.65 C 103.67 36.87 104.70 51.69 96.04 58.02 C 91.30 61.48 85.77 65.45 86.56 72.17 C 82.43 72.31 78.29 72.30 74.16 72.17 C 74.39 67.73 74.61 62.99 77.24 59.22 C 79.96 54.94 85.13 53.10 88.00 48.97 C 89.78 46.32 88.48 42.45 85.44 41.42 C 79.63 38.90 73.55 42.34 69.13 46.03 C 66.48 43.25 63.86 40.44 61.25 37.62 Z" />
<path fill="#03a9f4" opacity="1.00" d=" M 392.96 57.93 C 396.81 53.09 404.03 52.69 408.79 56.42 C 405.65 71.94 402.31 87.43 399.03 102.92 C 396.80 108.21 390.53 113.68 384.56 110.44 C 379.06 107.43 379.88 100.23 380.10 94.94 C 381.29 81.92 384.21 68.10 392.96 57.93 Z" />
<path fill="#03a9f4" opacity="1.00" d=" M 834.33 54.49 C 837.84 53.15 842.91 53.81 845.12 57.02 C 842.17 72.30 838.73 87.50 835.61 102.75 C 833.42 108.77 825.47 114.50 819.59 109.45 C 814.20 103.31 816.97 94.21 817.55 86.88 C 819.98 75.12 823.10 60.90 834.33 54.49 Z" />
<path fill="#03a9f4" opacity="1.00" d=" M 540.46 83.03 C 543.72 75.11 545.51 66.70 548.34 58.63 C 548.61 68.81 551.59 78.55 554.67 88.16 C 557.48 97.19 555.07 109.51 545.68 113.63 C 537.51 116.57 528.71 109.85 529.24 101.20 C 532.77 101.97 536.68 103.03 540.05 101.10 C 546.93 97.83 547.50 86.46 540.46 83.03 Z" />
<path fill="#03a9f4" opacity="1.00" d=" M 73.53 79.01 C 78.27 78.98 83.02 78.97 87.76 79.04 C 87.75 83.68 87.75 88.32 87.76 92.96 C 83.02 93.03 78.27 93.02 73.53 92.99 C 73.47 88.33 73.47 83.67 73.53 79.01 Z" />
<path fill="#03a9f4" opacity="1.00" d=" M 150.28 98.37 C 158.92 95.54 167.22 105.93 162.86 113.76 C 159.81 120.63 149.61 122.09 144.92 116.12 C 139.64 110.47 142.69 100.06 150.28 98.37 Z" />
<path fill="#03a9f4" opacity="1.00" d=" M 182.34 98.51 C 189.26 96.01 196.91 101.99 196.54 109.22 C 196.69 117.27 186.45 123.03 179.82 118.16 C 172.18 113.75 173.76 100.78 182.34 98.51 Z" />
<path fill="#03a9f4" opacity="1.00" d=" M 215.29 98.38 C 223.11 95.82 230.98 104.06 228.71 111.76 C 227.01 119.07 217.14 122.63 211.43 117.49 C 204.52 112.48 206.91 100.24 215.29 98.38 Z" />
<path fill="#03a9f4" opacity="1.00" d=" M 403.32 167.30 C 406.26 165.04 409.81 169.57 406.83 171.80 C 404.44 175.88 400.33 169.31 403.32 167.30 Z" />
<path fill="#03a9f4" opacity="1.00" d=" M 361.25 169.27 C 367.83 167.15 375.16 172.36 376.20 179.00 C 377.42 185.70 371.68 192.49 364.97 192.87 C 358.43 193.22 352.31 187.31 352.39 180.77 C 352.44 175.55 356.28 170.74 361.25 169.27 Z" />
<path fill="#03a9f4" opacity="1.00" d=" M 448.75 171.58 C 450.89 176.15 452.29 181.01 454.05 185.74 C 450.60 185.76 447.16 185.76 443.72 185.73 C 445.34 180.99 446.99 176.26 448.75 171.58 Z" />
<path fill="#03a9f4" opacity="1.00" d=" M 522.39 181.43 C 531.24 178.94 532.90 195.32 524.02 195.04 C 516.22 196.08 515.14 182.57 522.39 181.43 Z" />
<path fill="#03a9f4" opacity="1.00" d=" M 650.31 181.32 C 658.54 179.77 659.98 194.38 652.03 195.02 C 643.66 196.82 642.18 181.88 650.31 181.32 Z" />
<path fill="#03a9f4" opacity="1.00" d=" M 707.42 181.41 C 716.04 179.29 717.53 194.97 709.02 195.03 C 701.04 196.37 699.87 182.29 707.42 181.41 Z" />
<path fill="#03a9f4" opacity="1.00" d=" M 808.39 181.38 C 816.92 179.41 818.35 194.85 810.01 195.03 C 801.88 196.47 800.66 182.16 808.39 181.38 Z" />
<path fill="#03a9f4" opacity="1.00" d=" M 398.70 192.30 C 395.78 188.50 399.93 185.01 402.91 183.06 C 405.11 185.73 407.32 188.41 409.46 191.14 C 406.72 193.92 401.49 196.45 398.70 192.30 Z" />
</g>
<g id="#ffffffff">
<path fill="#ffffff" opacity="1.00" d=" M 32.18 18.16 C 62.39 0.03 103.03 0.30 132.81 19.23 C 144.64 26.94 154.68 38.44 158.05 52.41 C 140.43 57.21 123.61 66.91 112.86 81.96 C 105.20 92.50 101.80 105.88 103.33 118.81 C 95.07 120.42 86.66 121.23 78.24 121.04 C 78.22 128.45 78.32 135.86 78.19 143.26 C 62.76 131.59 47.73 119.38 32.23 107.79 C 18.30 99.28 6.58 85.50 4.32 68.91 C 1.29 48.03 14.80 28.42 32.18 18.16 M 61.25 37.62 C 63.86 40.44 66.48 43.25 69.13 46.03 C 73.55 42.34 79.63 38.90 85.44 41.42 C 88.48 42.45 89.78 46.32 88.00 48.97 C 85.13 53.10 79.96 54.94 77.24 59.22 C 74.61 62.99 74.39 67.73 74.16 72.17 C 78.29 72.30 82.43 72.31 86.56 72.17 C 85.77 65.45 91.30 61.48 96.04 58.02 C 104.70 51.69 103.67 36.87 94.37 31.65 C 83.73 25.69 69.34 28.68 61.25 37.62 M 73.53 79.01 C 73.47 83.67 73.47 88.33 73.53 92.99 C 78.27 93.02 83.02 93.03 87.76 92.96 C 87.75 88.32 87.75 83.68 87.76 79.04 C 83.02 78.97 78.27 78.98 73.53 79.01 Z" />
<path fill="#ffffff" opacity="1.00" d=" M 295.74 20.78 C 306.84 6.35 328.05 1.85 344.67 8.33 C 355.36 12.45 357.66 27.49 350.93 35.95 C 347.14 40.81 339.10 41.91 334.73 37.22 C 340.37 32.52 344.01 23.87 339.85 17.11 C 335.22 11.24 325.65 11.90 320.11 16.12 C 313.54 21.77 314.98 32.16 319.14 38.84 C 326.30 49.53 338.60 55.60 345.26 66.73 C 353.12 79.90 353.14 98.18 343.40 110.42 C 335.86 119.72 323.63 123.86 311.97 124.24 C 302.14 124.50 291.52 123.65 283.28 117.73 C 274.23 111.43 272.83 98.30 276.74 88.70 C 281.18 78.71 293.69 74.30 303.85 77.17 C 307.16 78.06 309.72 80.95 310.21 84.34 C 304.26 84.99 297.43 86.62 294.24 92.23 C 291.44 97.59 291.11 104.54 294.18 109.86 C 299.86 118.96 315.24 119.16 320.85 109.86 C 326.47 100.57 325.81 88.34 321.18 78.79 C 314.88 65.99 301.59 58.75 294.26 46.72 C 289.37 38.80 290.03 28.10 295.74 20.78 Z" />
<path fill="#ffffff" opacity="1.00" d=" M 465.75 13.73 C 476.75 4.86 493.09 2.70 505.72 9.25 C 515.61 14.67 518.98 26.65 519.47 37.18 C 520.16 59.65 516.92 83.33 504.49 102.55 C 495.93 116.10 480.32 125.50 464.02 124.20 C 456.62 123.87 447.99 119.16 447.52 110.99 C 447.55 104.11 454.89 101.05 460.75 100.64 C 458.68 104.09 458.24 108.73 461.07 111.92 C 464.12 116.02 470.05 115.15 474.06 113.09 C 483.32 108.24 488.50 98.43 492.02 89.00 C 497.49 73.62 499.52 57.23 500.25 40.99 C 500.21 34.05 500.52 26.47 496.78 20.32 C 491.96 13.57 480.96 14.98 476.46 21.45 C 467.69 32.51 463.56 48.66 468.91 62.07 C 473.86 70.45 486.52 64.98 488.66 56.91 C 492.18 60.89 492.97 67.15 489.33 71.34 C 483.60 78.32 473.32 80.38 464.82 78.28 C 455.79 75.90 450.63 66.71 449.20 58.04 C 446.82 41.82 452.67 24.02 465.75 13.73 Z" />
<path fill="#ffffff" opacity="1.00" d=" M 615.21 11.48 C 624.41 11.40 630.67 22.89 625.51 30.54 C 621.13 38.21 608.70 38.41 604.29 30.68 C 598.95 22.80 605.58 10.79 615.21 11.48 Z" />
<path fill="#ffffff" opacity="1.00" d=" M 545.31 46.44 C 552.84 44.83 560.37 43.24 567.92 41.75 C 568.23 46.51 568.22 51.30 568.98 56.03 C 570.87 70.76 579.95 83.95 578.84 99.18 C 582.73 96.11 585.60 91.85 589.92 89.32 C 593.19 74.55 596.29 59.73 599.33 44.90 C 606.88 44.60 614.45 44.78 622.02 44.79 C 618.21 63.58 613.91 82.27 610.29 101.09 C 609.10 104.99 611.65 109.27 615.95 109.13 C 627.89 110.49 632.70 94.54 644.02 95.11 C 635.80 104.17 627.37 113.37 616.99 120.00 C 609.81 124.99 599.51 124.53 592.56 119.41 C 586.40 114.49 586.70 105.76 587.94 98.72 C 582.80 103.29 576.69 107.06 573.22 113.18 C 564.91 124.03 549.50 124.68 537.11 122.61 C 529.54 121.61 522.50 115.95 521.82 108.01 C 520.40 98.45 522.47 85.09 533.43 82.30 C 539.54 71.18 542.39 58.68 545.31 46.44 M 540.46 83.03 C 547.50 86.46 546.93 97.83 540.05 101.10 C 536.68 103.03 532.77 101.97 529.24 101.20 C 528.71 109.85 537.51 116.57 545.68 113.63 C 555.07 109.51 557.48 97.19 554.67 88.16 C 551.59 78.55 548.61 68.81 548.34 58.63 C 545.51 66.70 543.72 75.11 540.46 83.03 Z" />
<path fill="#ffffff" opacity="1.00" d=" M 380.42 50.38 C 389.18 45.10 401.42 42.37 410.38 48.68 C 410.70 47.41 411.02 46.15 411.34 44.90 C 418.87 44.60 426.40 44.79 433.93 44.79 C 430.12 63.87 425.60 82.82 422.11 101.96 C 420.47 109.88 431.40 110.89 436.03 107.07 C 443.26 103.87 447.29 94.05 456.05 95.13 C 447.30 104.35 438.75 114.19 427.69 120.72 C 418.28 126.50 402.77 123.39 399.49 111.85 C 395.01 117.45 389.32 122.79 382.00 124.09 C 374.80 125.42 366.21 123.45 362.05 116.97 C 357.31 109.65 358.74 100.49 359.37 92.29 C 361.22 76.63 366.51 59.42 380.42 50.38 M 392.96 57.93 C 384.21 68.10 381.29 81.92 380.10 94.94 C 379.88 100.23 379.06 107.43 384.56 110.44 C 390.53 113.68 396.80 108.21 399.03 102.92 C 402.31 87.43 405.65 71.94 408.79 56.42 C 404.03 52.69 396.81 53.09 392.96 57.93 Z" />
<path fill="#ffffff" opacity="1.00" d=" M 688.28 44.83 C 695.82 44.69 703.36 44.73 710.90 44.81 C 710.36 47.54 709.79 50.27 709.18 53.00 C 715.49 49.01 722.28 44.63 730.05 44.89 C 736.55 45.18 741.62 49.98 745.10 55.07 C 752.09 49.94 759.99 44.53 769.06 44.92 C 779.68 46.16 787.73 57.61 785.72 68.06 C 783.57 79.08 780.90 90.00 778.79 101.03 C 778.24 104.06 778.11 108.15 781.21 109.87 C 786.51 112.24 792.15 108.19 795.03 103.90 C 795.75 86.31 798.80 66.88 812.07 54.08 C 821.13 46.01 836.13 41.31 846.88 48.76 C 847.23 47.43 847.59 46.10 847.96 44.77 C 855.45 44.74 862.94 44.73 870.44 44.78 C 866.64 63.91 862.06 82.89 858.61 102.08 C 857.16 110.13 868.22 110.76 872.85 106.90 C 879.88 103.73 883.87 94.04 892.42 95.19 C 883.90 104.37 875.36 113.93 864.57 120.51 C 855.11 126.56 839.42 123.51 835.93 111.87 C 829.78 120.54 818.92 127.02 808.11 123.67 C 801.69 122.27 797.39 116.65 795.67 110.59 C 790.19 115.73 784.72 121.94 776.97 123.35 C 770.53 123.91 762.95 122.63 758.84 117.14 C 755.26 112.28 755.32 105.79 756.31 100.09 C 758.37 89.70 760.76 79.36 762.78 68.96 C 763.54 64.79 762.86 59.45 758.72 57.28 C 754.76 55.76 750.55 57.40 746.97 59.15 C 747.34 62.42 747.78 65.77 747.06 69.03 C 743.32 87.13 739.31 105.18 735.74 123.31 C 728.12 123.71 720.49 123.45 712.87 123.45 C 716.55 105.25 720.62 87.14 724.28 68.94 C 725.34 64.24 723.77 57.27 718.06 56.74 C 713.87 56.58 707.43 57.85 707.09 63.01 C 702.83 83.18 698.62 103.36 694.21 123.50 C 686.70 123.48 679.19 123.56 671.69 123.45 C 677.14 97.23 682.77 71.04 688.28 44.83 M 834.33 54.49 C 823.10 60.90 819.98 75.12 817.55 86.88 C 816.97 94.21 814.20 103.31 819.59 109.45 C 825.47 114.50 833.42 108.77 835.61 102.75 C 838.73 87.50 842.17 72.30 845.12 57.02 C 842.91 53.81 837.84 53.15 834.33 54.49 Z" />
<path fill="#ffffff" opacity="1.00" d=" M 138.68 65.70 C 159.23 54.08 183.97 51.32 206.95 55.95 C 225.22 60.03 243.30 69.13 254.28 84.75 C 262.61 95.63 265.54 110.51 261.73 123.69 C 257.79 138.22 246.75 149.53 234.20 157.22 C 218.94 168.52 204.11 180.41 189.02 191.94 C 188.93 184.66 189.00 177.37 188.99 170.08 C 162.93 170.15 134.95 161.86 118.27 140.71 C 109.16 129.11 105.30 113.10 109.82 98.86 C 114.41 84.44 125.64 72.94 138.68 65.70 M 150.28 98.37 C 142.69 100.06 139.64 110.47 144.92 116.12 C 149.61 122.09 159.81 120.63 162.86 113.76 C 167.22 105.93 158.92 95.54 150.28 98.37 M 182.34 98.51 C 173.76 100.78 172.18 113.75 179.82 118.16 C 186.45 123.03 196.69 117.27 196.54 109.22 C 196.91 101.99 189.26 96.01 182.34 98.51 M 215.29 98.38 C 206.91 100.24 204.52 112.48 211.43 117.49 C 217.14 122.63 227.01 119.07 228.71 111.76 C 230.98 104.06 223.11 95.82 215.29 98.38 Z" />
<path fill="#ffffff" opacity="1.00" d=" M 649.32 99.39 C 657.95 97.38 666.34 106.46 663.75 114.91 C 661.77 123.70 649.56 127.20 643.20 120.84 C 635.69 114.54 639.65 100.80 649.32 99.39 Z" />
</g>
<g id="#ffa00fff">
<path fill="#ffa00f" opacity="1.00" d=" M 492.15 159.13 C 495.35 155.07 501.01 156.42 505.49 156.28 C 505.49 158.51 505.52 160.74 505.60 162.97 C 503.79 163.18 501.97 163.31 500.16 163.36 C 498.57 166.94 499.43 170.95 499.27 174.73 C 501.34 174.75 503.42 174.75 505.50 174.78 C 505.51 177.12 505.47 179.45 505.40 181.79 C 503.34 181.78 501.30 181.77 499.25 181.78 C 499.24 188.19 499.27 194.60 499.24 201.01 C 496.23 201.05 493.24 201.04 490.24 200.99 C 490.23 194.62 490.28 188.24 490.22 181.87 C 488.97 181.79 487.72 181.71 486.49 181.64 C 486.49 179.43 486.47 177.22 486.44 175.02 C 487.70 174.88 488.95 174.75 490.22 174.61 C 490.55 169.47 489.17 163.72 492.15 159.13 Z" />
<path fill="#ffa00f" opacity="1.00" d=" M 344.15 175.15 C 347.52 162.72 363.32 155.50 374.54 162.53 C 386.50 168.78 389.11 186.41 379.25 195.74 C 381.89 194.38 384.82 194.06 387.74 194.19 C 387.75 196.45 387.75 198.72 387.77 200.99 C 379.85 201.10 371.92 200.93 364.00 201.24 C 350.72 202.60 340.10 187.43 344.15 175.15 M 361.25 169.27 C 356.28 170.74 352.44 175.55 352.39 180.77 C 352.31 187.31 358.43 193.22 364.97 192.87 C 371.68 192.49 377.42 185.70 376.20 179.00 C 375.16 172.36 367.83 167.15 361.25 169.27 Z" />
<path fill="#ffa00f" opacity="1.00" d=" M 396.30 164.35 C 400.50 157.27 413.22 158.70 415.06 166.99 C 416.45 171.84 412.97 175.99 409.34 178.67 C 411.15 180.92 413.00 183.14 414.89 185.33 C 416.27 183.70 417.65 182.07 419.03 180.44 C 420.74 182.12 422.46 183.79 424.22 185.43 C 422.92 187.51 421.40 189.43 419.75 191.24 C 422.22 194.60 424.97 197.75 427.52 201.06 C 422.78 201.08 416.65 202.58 414.48 197.00 C 408.67 202.54 397.43 203.56 392.34 196.62 C 387.24 189.98 391.14 180.87 398.01 177.33 C 395.06 173.76 393.61 168.49 396.30 164.35 M 403.32 167.30 C 400.33 169.31 404.44 175.88 406.83 171.80 C 409.81 169.57 406.26 165.04 403.32 167.30 M 398.70 192.30 C 401.49 196.45 406.72 193.92 409.46 191.14 C 407.32 188.41 405.11 185.73 402.91 183.06 C 399.93 185.01 395.78 188.50 398.70 192.30 Z" />
<path fill="#ffa00f" opacity="1.00" d=" M 445.03 160.51 C 447.61 160.50 450.20 160.50 452.79 160.53 C 458.20 174.04 463.75 187.49 469.14 201.01 C 465.89 201.07 462.65 201.05 459.41 200.93 C 458.53 198.30 457.61 195.68 456.71 193.06 C 451.53 192.95 446.35 193.01 441.17 193.00 C 440.22 195.70 439.23 198.38 438.19 201.05 C 435.00 201.05 431.81 201.04 428.62 201.00 C 434.05 187.49 439.56 174.01 445.03 160.51 M 448.75 171.58 C 446.99 176.26 445.34 180.99 443.72 185.73 C 447.16 185.76 450.60 185.76 454.05 185.74 C 452.29 181.01 450.89 176.15 448.75 171.58 Z" />
<path fill="#ffa00f" opacity="1.00" d=" M 587.13 160.54 C 590.72 160.48 594.32 160.48 597.92 160.52 C 600.86 169.94 603.36 179.50 606.52 188.86 C 609.34 179.42 612.03 169.94 614.91 160.53 C 618.52 160.47 622.14 160.42 625.75 160.64 C 628.21 174.12 630.93 187.56 633.52 201.02 C 630.18 201.07 626.86 201.05 623.53 200.93 C 621.97 191.77 620.61 182.58 618.74 173.47 C 616.06 182.64 613.60 191.86 610.89 201.02 C 607.89 201.05 604.90 201.04 601.91 201.01 C 599.23 192.07 596.93 183.01 594.16 174.10 C 591.85 182.92 591.00 192.08 589.21 201.02 C 585.91 201.05 582.62 201.05 579.33 200.99 C 581.88 187.50 584.57 174.04 587.13 160.54 Z" />
<path fill="#ffa00f" opacity="1.00" d=" M 520.42 174.58 C 526.98 173.26 534.70 176.03 537.60 182.37 C 540.93 189.25 537.39 198.56 529.90 200.81 C 525.99 201.44 521.95 201.36 518.03 200.89 C 512.03 199.39 507.99 193.06 508.72 186.98 C 508.98 180.69 514.36 175.53 520.42 174.58 M 522.39 181.43 C 515.14 182.57 516.22 196.08 524.02 195.04 C 532.90 195.32 531.24 178.94 522.39 181.43 Z" />
<path fill="#ffa00f" opacity="1.00" d=" M 553.69 177.44 C 556.28 175.08 559.77 173.37 563.29 174.72 C 563.24 177.32 563.24 179.92 563.30 182.52 C 560.11 180.66 555.61 181.59 554.26 185.24 C 552.81 190.33 553.75 195.73 553.53 200.96 C 550.51 201.05 547.49 201.05 544.47 200.96 C 544.47 192.30 544.59 183.63 544.41 174.97 C 547.34 174.68 550.29 174.70 553.24 174.74 C 553.36 175.42 553.58 176.76 553.69 177.44 Z" />
<path fill="#ffa00f" opacity="1.00" d=" M 648.38 174.50 C 655.16 173.28 663.16 176.70 665.41 183.55 C 667.93 190.12 664.46 198.34 657.70 200.64 C 650.85 201.91 641.81 202.18 637.88 195.18 C 632.59 186.95 638.78 175.28 648.38 174.50 M 650.31 181.32 C 642.18 181.88 643.66 196.82 652.03 195.02 C 659.98 194.38 658.54 179.77 650.31 181.32 Z" />
<path fill="#ffa00f" opacity="1.00" d=" M 681.03 177.65 C 683.47 174.93 687.00 173.75 690.60 174.35 C 690.74 177.11 690.78 179.87 690.87 182.63 C 687.25 180.28 682.34 181.97 681.28 186.22 C 680.61 191.11 681.18 196.09 680.99 201.01 C 677.99 201.04 675.00 201.04 672.01 201.01 C 671.99 192.26 671.99 183.52 672.01 174.77 C 674.98 174.74 677.94 174.74 680.92 174.76 C 680.94 175.48 681.00 176.93 681.03 177.65 Z" />
<path fill="#ffa00f" opacity="1.00" d=" M 705.40 174.52 C 711.96 173.30 719.69 176.16 722.46 182.56 C 725.60 189.34 722.16 198.41 714.89 200.72 C 711.00 201.49 706.96 201.35 703.04 200.92 C 696.94 199.57 692.74 193.15 693.48 187.01 C 693.69 180.58 699.28 175.51 705.40 174.52 M 707.42 181.41 C 699.87 182.29 701.04 196.37 709.02 195.03 C 717.53 194.97 716.04 179.29 707.42 181.41 Z" />
<path fill="#ffa00f" opacity="1.00" d=" M 731.14 179.18 C 738.34 170.56 755.67 173.44 757.29 185.43 C 754.43 185.50 751.57 185.52 748.72 185.59 C 747.58 182.37 744.00 180.14 740.71 181.70 C 736.24 184.38 736.23 192.72 741.19 194.88 C 744.34 195.89 747.12 194.01 748.78 191.46 C 751.53 191.48 754.27 191.50 757.04 191.55 C 755.19 201.68 742.91 203.05 734.91 200.13 C 727.34 196.43 725.61 185.33 731.14 179.18 Z" />
<path fill="#ffa00f" opacity="1.00" d=" M 764.73 178.77 C 772.05 170.60 789.00 173.64 790.46 185.44 C 787.58 185.51 784.71 185.52 781.84 185.51 C 780.71 183.24 778.95 180.91 776.10 181.23 C 770.18 181.44 769.29 189.82 772.42 193.57 C 775.28 196.48 780.20 194.95 781.87 191.50 C 784.68 191.48 787.48 191.49 790.29 191.57 C 788.31 201.72 776.01 203.11 767.95 200.04 C 760.33 196.19 758.82 184.76 764.73 178.77 Z" />
<path fill="#ffa00f" opacity="1.00" d=" M 806.40 174.53 C 812.50 173.40 819.54 175.77 822.71 181.34 C 826.89 188.15 823.52 198.33 815.74 200.73 C 811.87 201.51 807.85 201.31 803.95 200.95 C 797.58 199.46 793.35 192.56 794.44 186.17 C 795.12 180.07 800.51 175.42 806.40 174.53 M 808.39 181.38 C 800.66 182.16 801.88 196.47 810.01 195.03 C 818.35 194.85 816.92 179.41 808.39 181.38 Z" />
</g>
</svg>
