<?xml version="1.0" encoding="UTF-8" standalone="no"?>
<svg
   xmlns:dc="http://purl.org/dc/elements/1.1/"
   xmlns:cc="http://creativecommons.org/ns#"
   xmlns:rdf="http://www.w3.org/1999/02/22-rdf-syntax-ns#"
   xmlns:svg="http://www.w3.org/2000/svg"
   xmlns="http://www.w3.org/2000/svg"
   viewBox="0 0 494.7773 212.47186"
   height="212.47186"
   width="494.77731"
   xml:space="preserve"
   id="svg2"
   version="1.1"><metadata
     id="metadata8"><rdf:RDF><cc:Work
         rdf:about=""><dc:format>image/svg+xml</dc:format><dc:type
           rdf:resource="http://purl.org/dc/dcmitype/StillImage" /><dc:title></dc:title></cc:Work></rdf:RDF></metadata><defs
     id="defs6" /><g
     transform="matrix(1.3333333,0,0,-1.3333333,-340,272.62399)"
     id="g10"><g
       transform="scale(0.1)"
       id="g12"><path
         id="path26"
         style="fill:#ffffff;fill-opacity:1;fill-rule:nonzero;stroke:none"
         d="m 3225.8831,815 h 250 v 870 h -250 z" /><path
         id="path28"
         style="fill:#ffffff;fill-opacity:1;fill-rule:nonzero;stroke:none"
         d="m 5464.0601,639.859 c -335.29,0 -608.05,272.77 -608.05,608.051 0,335.28 272.76,608.05 608.05,608.05 335.28,0 608.04,-272.77 608.04,-608.05 0,-335.281 -272.76,-608.051 -608.04,-608.051 z m -2117.29,0 c -335.286,0 -608.047,272.77 -608.047,608.051 0,335.28 272.761,608.05 608.047,608.05 335.28,0 608.04,-272.77 608.04,-608.05 0,-335.281 -272.76,-608.051 -608.04,-608.051 z m 2117.29,1404.821 c -406.46,0 -742.57,-305.99 -790.64,-699.68 h -536.01 c -48.07,393.69 -384.18,699.68 -790.64,699.68 -439.344,0 -796.77,-357.42 -796.77,-796.77 0,-439.34 357.426,-796.769 796.77,-796.769 407.9,0 744.99,308.168 791.17,703.859 h 534.95 c 46.18,-395.691 383.27,-703.859 791.17,-703.859 439.34,0 796.77,357.429 796.77,796.769 0,439.35 -357.43,796.77 -796.77,796.77" /><path
         id="path30"
         style="fill:#ffffff;fill-opacity:1;fill-rule:nonzero;stroke:none"
         d="m 5464.0601,1062.7 c -102.13,0 -185.22,83.08 -185.22,185.21 0,102.13 83.09,185.22 185.22,185.22 102.13,0 185.21,-83.09 185.21,-185.22 0,-102.13 -83.08,-185.21 -185.21,-185.21 z m 0,622.06 c -240.88,0 -436.85,-195.98 -436.85,-436.85 0,-240.88 195.97,-436.84 436.85,-436.84 240.88,0 436.84,195.96 436.84,436.84 0,240.87 -195.96,436.85 -436.84,436.85" /></g></g></svg>