<?xml version="1.0" encoding="UTF-8" standalone="no"?>
<svg
   xmlns:dc="http://purl.org/dc/elements/1.1/"
   xmlns:cc="http://creativecommons.org/ns#"
   xmlns:rdf="http://www.w3.org/1999/02/22-rdf-syntax-ns#"
   xmlns:svg="http://www.w3.org/2000/svg"
   xmlns="http://www.w3.org/2000/svg"
   xmlns:sodipodi="http://sodipodi.sourceforge.net/DTD/sodipodi-0.dtd"
   xmlns:inkscape="http://www.inkscape.org/namespaces/inkscape"
   width="2800px"
   height="880px"
   id="svg2"
   version="1.1"
   inkscape:version="0.91 r"
   sodipodi:docname="logo.svg">
  <metadata
     id="metadata12">
    <rdf:RDF>
      <cc:Work
         rdf:about="">
        <dc:format>image/svg+xml</dc:format>
        <dc:type
           rdf:resource="http://purl.org/dc/dcmitype/StillImage" />
        <dc:title></dc:title>
      </cc:Work>
    </rdf:RDF>
  </metadata>
  <defs
     id="defs10" />
  <sodipodi:namedview
     pagecolor="#ffffff"
     bordercolor="#666666"
     borderopacity="1"
     objecttolerance="10"
     gridtolerance="10"
     guidetolerance="10"
     inkscape:pageopacity="0"
     inkscape:pageshadow="2"
     inkscape:window-width="1382"
     inkscape:window-height="1299"
     id="namedview8"
     showgrid="false"
     inkscape:zoom="0.38"
     inkscape:cx="301.74622"
     inkscape:cy="321.93723"
     inkscape:window-x="1871"
     inkscape:window-y="463"
     inkscape:window-maximized="0"
     inkscape:current-layer="layer3" />
  <path
     fill="rgb(95,95,95)"
     fill-rule="evenodd"
     d="M 2438.9 702C 2413.36 702 2391.53 692.94 2373.41 674.81 2355.28 656.69 2346.22 634.86 2346.22 609.31 2346.22 609.31 2346.22 448.45 2346.22 448.45 2346.22 448.45 2735.34 448.45 2735.34 448.45 2735.34 448.45 2735.34 350.41 2735.34 350.41 2735.34 342.24 2732.4 335.22 2726.54 329.34 2720.66 323.48 2713.63 320.53 2705.47 320.53 2705.47 320.53 2346.22 320.53 2346.22 320.53 2346.22 320.53 2346.22 257.72 2346.22 257.72 2346.22 257.72 2705.47 257.72 2705.47 257.72 2731.51 257.72 2753.6 266.79 2771.73 284.91 2789.85 303.05 2798.92 324.88 2798.92 350.41 2798.92 350.41 2798.92 702 2798.92 702 2798.92 702 2438.9 702 2438.9 702ZM 2735.34 511.27C 2735.34 511.27 2409.03 511.27 2409.03 511.27 2409.03 511.27 2409.03 609.31 2409.03 609.31 2409.03 617.49 2411.96 624.51 2417.84 630.38 2423.7 636.26 2430.73 639.19 2438.9 639.19 2438.9 639.19 2735.34 639.19 2735.34 639.19 2735.34 639.19 2735.34 511.27 2735.34 511.27ZM 2025.65 329.34C 2019.77 335.22 2016.84 342.24 2016.84 350.41 2016.84 350.41 2016.84 702 2016.84 702 2016.84 702 1954.03 702 1954.03 702 1954.03 702 1954.03 350.41 1954.03 350.41 1954.03 324.88 1963.09 303.05 1981.22 284.91 1999.34 266.79 2021.17 257.72 2046.72 257.72 2046.72 257.72 2296.43 257.72 2296.43 257.72 2296.43 257.72 2296.43 320.53 2296.43 320.53 2296.43 320.53 2046.72 320.53 2046.72 320.53 2038.54 320.53 2031.52 323.48 2025.65 329.34ZM 1449.63 674.81C 1431.5 656.69 1422.44 634.86 1422.44 609.31 1422.44 609.31 1422.44 448.45 1422.44 448.45 1422.44 448.45 1811.57 448.45 1811.57 448.45 1811.57 448.45 1811.57 350.41 1811.57 350.41 1811.57 342.24 1808.62 335.22 1802.76 329.34 1796.88 323.48 1789.85 320.53 1781.69 320.53 1781.69 320.53 1422.44 320.53 1422.44 320.53 1422.44 320.53 1422.44 257.72 1422.44 257.72 1422.44 257.72 1781.69 257.72 1781.69 257.72 1807.74 257.72 1829.82 266.79 1847.95 284.91 1866.07 303.05 1875.14 324.88 1875.14 350.41 1875.14 350.41 1875.14 702 1875.14 702 1875.14 702 1515.12 702 1515.12 702 1489.58 702 1467.75 692.94 1449.63 674.81ZM 1811.57 511.27C 1811.57 511.27 1485.25 511.27 1485.25 511.27 1485.25 511.27 1485.25 609.31 1485.25 609.31 1485.25 617.49 1488.18 624.51 1494.06 630.38 1499.92 636.26 1506.95 639.19 1515.12 639.19 1515.12 639.19 1811.57 639.19 1811.57 639.19 1811.57 639.19 1811.57 511.27 1811.57 511.27ZM 1275.38 702C 1275.38 702 978.17 702 978.17 702 978.17 702 978.17 878.18 978.17 878.18 978.17 878.18 915.36 878.18 915.36 878.18 915.36 878.18 915.36 257.72 915.36 257.72 915.36 257.72 1275.38 257.72 1275.38 257.72 1300.91 257.72 1322.74 266.79 1340.87 284.91 1358.99 303.05 1368.06 324.88 1368.06 350.41 1368.06 350.41 1368.06 609.31 1368.06 609.31 1368.06 634.86 1358.99 656.69 1340.87 674.81 1322.74 692.94 1300.91 702 1275.38 702ZM 1305.25 350.41C 1305.25 342.24 1302.31 335.22 1296.44 329.34 1290.56 323.48 1283.54 320.53 1275.38 320.53 1275.38 320.53 1008.81 320.53 1008.81 320.53 1000.63 320.53 993.49 323.48 987.36 329.34 981.23 335.22 978.17 342.24 978.17 350.41 978.17 350.41 978.17 609.31 978.17 609.31 978.17 617.49 981.23 624.51 987.36 630.38 993.49 636.26 1000.63 639.19 1008.81 639.19 1008.81 639.19 1275.38 639.19 1275.38 639.19 1283.54 639.19 1290.56 636.26 1296.44 630.38 1302.31 624.51 1305.25 617.49 1305.25 609.31 1305.25 609.31 1305.25 350.41 1305.25 350.41Z"
     id="path6"
     style="fill:#ffffff;fill-opacity:1" />
  <g
     inkscape:groupmode="layer"
     id="layer3"
     inkscape:label="Layer 1">
    <rect
       style="fill:#ffffff;fill-opacity:1"
       id="rect4288"
       width="428.94736"
       height="442.10526"
       x="157.89473"
       y="195.78947" />
  </g>
  <g
     inkscape:groupmode="layer"
     id="layer4"
     inkscape:label="Layer 2">
    <path
       style=""
       fill="rgb(49,199,255)"
       fill-rule="evenodd"
       d="M 762.06 516.88C 762.06 715.31 567.32 710.39 567.32 710.39 567.32 710.39 567.32 877.04 567.32 877.04 567.32 877.04 223.32 706.39 223.32 706.39 223.32 706.39 1.32 747.16 1.32 516.88 1.32 176.72 1.32 91.68 199.75 91.68 219.75 111.68 228.09 126.35 228.09 126.35 228.09 126.35 215.84 74.62 284.79 34.35 362.49-11.04 480.74-7.77 573.22 36.64 671.18 83.67 673.28 144.6 673.28 318.26 766.68 346.8 762.06 357.1 762.06 516.88ZM 338.34 274.89C 338.34 242.31 322.07 226.01 289.55 226.01 289.55 226.01 234.79 226.01 234.79 226.01 202.26 226.01 186 242.31 186 274.89 186 274.89 186 329.73 186 329.73 186 362.32 202.26 378.61 234.79 378.61 234.79 378.61 289.55 378.61 289.55 378.61 322.07 378.61 338.34 362.32 338.34 329.73 338.34 329.73 338.34 274.89 338.34 274.89ZM 338.34 488.29C 338.34 455.71 322.07 439.41 289.55 439.41 289.55 439.41 234.79 439.41 234.79 439.41 202.26 439.41 186 455.71 186 488.29 186 488.29 186 543.13 186 543.13 186 575.72 202.26 592 234.79 592 234.79 592 289.55 592 289.55 592 322.07 592 338.34 575.72 338.34 543.13 338.34 543.13 338.34 488.29 338.34 488.29ZM 551.99 274.89C 551.99 242.31 535.72 226.01 503.19 226.01 503.19 226.01 448.44 226.01 448.44 226.01 415.91 226.01 399.64 242.31 399.64 274.89 399.64 274.89 399.64 329.73 399.64 329.73 399.64 362.32 415.91 378.61 448.44 378.61 448.44 378.61 503.19 378.61 503.19 378.61 535.72 378.61 551.99 362.32 551.99 329.73 551.99 329.73 551.99 274.89 551.99 274.89ZM 551.99 488.29C 551.99 455.71 535.72 439.41 503.19 439.41 503.19 439.41 448.44 439.41 448.44 439.41 415.91 439.41 399.64 455.71 399.64 488.29 399.64 488.29 399.64 543.13 399.64 543.13 399.64 575.72 415.91 592 448.44 592 448.44 592 503.19 592 503.19 592 535.72 592 551.99 575.72 551.99 543.13 551.99 543.13 551.99 488.29 551.99 488.29Z"
       id="path4" />
  </g>
</svg>
