<svg version="1.1" id="Livello_1" xmlns="http://www.w3.org/2000/svg" x="0" y="0" viewBox="0 0 1441.2 349.1" xml:space="preserve"><style>.st0{fill:#5059c9}.st1{fill:#7b83eb}.st2,.st3{opacity:.1;enable-background:new}.st3{opacity:.2}</style><path class="st0" d="M267.5 130.9h96.9c9.2 0 16.6 7.4 16.6 16.6v88.3c0 33.7-27.3 60.9-60.9 60.9h-.3c-33.7 0-60.9-27.3-60.9-60.9v-96.2c-.1-4.8 3.8-8.7 8.6-8.7z"/><circle class="st0" cx="333" cy="74.2" r="39.3"/><circle class="st1" cx="210.8" cy="56.7" r="56.7"/><path class="st1" d="M286.5 130.9h-160c-9 .2-16.2 7.7-16 16.8v100.7c-1.3 54.3 41.7 99.4 96 100.7 54.3-1.3 97.3-46.4 96-100.7V147.7c.2-9.1-7-16.6-16-16.8z"/><path class="st2" d="M215.2 130.9V272c0 6.5-4 12.3-9.9 14.7-1.9.8-4 1.2-6 1.2h-81.1c-1.1-2.9-2.2-5.8-3.1-8.7-3.1-10-4.6-20.4-4.6-30.9V147.7c-.2-9 6.9-16.5 16-16.8h88.7z"/><path class="st3" d="M206.5 130.9v149.8c0 2.1-.4 4.1-1.2 6-2.5 6-8.3 9.9-14.7 9.9h-68.2c-1.5-2.9-2.9-5.8-4.1-8.7s-2.2-5.8-3.1-8.7c-3.1-10-4.6-20.4-4.6-30.9V147.7c-.2-9 6.9-16.5 16-16.8h79.9z"/><path class="st3" d="M206.5 130.9v132.4c-.1 8.8-7.2 15.9-16 16h-75.4c-3.1-10-4.6-20.4-4.6-30.9V147.7c-.2-9 6.9-16.5 16-16.8h80z"/><path class="st3" d="M197.7 130.9v132.4c-.1 8.8-7.2 15.9-16 16H115c-3.1-10-4.6-20.4-4.6-30.9V147.7c-.2-9 6.9-16.5 16-16.8h71.3z"/><path class="st2" d="M215.2 85.8v27.5c-1.5.1-2.9.2-4.4.2-1.5 0-2.9-.1-4.4-.2-2.9-.2-5.9-.7-8.7-1.4-17.7-4.2-32.3-16.6-39.3-33.3-1.2-2.8-2.1-5.7-2.8-8.7h43.5c8.9-.1 16.1 7.1 16.1 15.9z"/><path class="st3" d="M206.5 94.5v18.8c-2.9-.2-5.9-.7-8.7-1.4-17.7-4.2-32.3-16.6-39.3-33.3h32c8.8 0 15.9 7.1 16 15.9z"/><path class="st3" d="M206.5 94.5v18.8c-2.9-.2-5.9-.7-8.7-1.4-17.7-4.2-32.3-16.6-39.3-33.3h32c8.8 0 15.9 7.1 16 15.9z"/><path class="st3" d="M197.7 94.5v17.4c-17.7-4.2-32.3-16.6-39.3-33.3h23.3c8.9 0 16 7.1 16 15.9z"/><linearGradient id="SVGID_1_" gradientUnits="userSpaceOnUse" x1="39.108" y1="-1217.291" x2="164.393" y2="-1000.302" gradientTransform="translate(0 1283.333)"><stop offset="0" stop-color="#5a62c3"/><stop offset=".5" stop-color="#4d55bd"/><stop offset="1" stop-color="#3940ab"/></linearGradient><path d="M21.8 78.5h160c8.8 0 16 7.2 16 16v160c0 8.8-7.2 16-16 16h-160c-8.8 0-16-7.2-16-16v-160c0-8.8 7.1-16 16-16z" fill="url(#SVGID_1_)"/><path d="M143.8 139.4h-32v87.1H91.5v-87.1H59.7v-16.9h84.2v16.9z" fill="#fff"/><g><path class="st0" d="M542.7 224.7h-16.3v-64.2c0-5.3.3-11.7 1-19.3h-.3c-1 4.3-1.9 7.4-2.7 9.3l-29.6 74.1h-11.3L453.8 151c-.8-2.2-1.7-5.5-2.6-9.9h-.3c.4 4 .6 10.4.6 19.4v64h-15.2v-99.2h23.2l26.1 66.1c2 5.1 3.3 8.9 3.9 11.3h.3c1.7-5.2 3.1-9.1 4.1-11.6l26.6-65.8h22.3v99.4zM570.5 139c-2.6 0-4.9-.9-6.7-2.6-1.9-1.7-2.8-3.9-2.8-6.5s.9-4.8 2.8-6.6c1.9-1.8 4.1-2.6 6.7-2.6 2.7 0 5 .9 6.9 2.6 1.9 1.8 2.8 3.9 2.8 6.6 0 2.5-.9 4.6-2.8 6.4-1.9 1.8-4.2 2.7-6.9 2.7zm7.9 85.7h-16v-70.8h16v70.8zM647.1 221.5c-5.7 3.3-12.4 4.9-20.1 4.9-10.5 0-19-3.3-25.5-9.9-6.5-6.6-9.7-15.1-9.7-25.6 0-11.7 3.5-21 10.4-28.1 6.9-7.1 16.2-10.6 27.8-10.6 6.5 0 12.1 1.1 17.1 3.4v14.9c-4.9-3.7-10.2-5.5-15.8-5.5-6.8 0-12.3 2.3-16.7 6.9-4.3 4.6-6.5 10.6-6.5 18 0 7.3 2 13.1 6.1 17.4 4.1 4.2 9.6 6.4 16.4 6.4 5.8 0 11.2-2.1 16.3-6.2v14zM701.1 169.2c-1.9-1.5-4.7-2.3-8.4-2.3-4.7 0-8.7 2.1-11.9 6.4-3.2 4.3-4.8 10.1-4.8 17.5v33.9h-16v-70.8h16v14.6h.3c1.6-5 4-8.9 7.2-11.7 3.3-2.8 6.9-4.2 10.9-4.2 2.9 0 5.1.4 6.6 1.3v15.3zM739.6 226.4c-10.9 0-19.7-3.3-26.2-9.9-6.5-6.6-9.8-15.4-9.8-26.3 0-11.9 3.4-21.2 10.2-27.9 6.8-6.7 16-10 27.5-10 11.1 0 19.7 3.3 25.9 9.8 6.2 6.5 9.3 15.5 9.3 27 0 11.3-3.3 20.3-10 27.1-6.6 6.8-15.6 10.2-26.9 10.2zm.8-61.4c-6.3 0-11.2 2.2-14.9 6.6-3.6 4.4-5.5 10.4-5.5 18.1 0 7.4 1.8 13.3 5.5 17.5 3.7 4.3 8.6 6.4 14.8 6.4 6.3 0 11.2-2.1 14.6-6.3 3.4-4.2 5.1-10.2 5.1-17.9 0-7.8-1.7-13.8-5.1-18.1-3.3-4.2-8.2-6.3-14.5-6.3zM785.4 222.5v-14.9c6 4.6 12.6 6.8 19.8 6.8 9.7 0 14.5-2.9 14.5-8.6 0-1.6-.4-3-1.2-4.1-.8-1.1-1.9-2.1-3.4-3-1.4-.9-3.1-1.7-5-2.4s-4-1.5-6.4-2.4c-2.9-1.2-5.5-2.4-7.8-3.7-2.3-1.3-4.3-2.8-5.8-4.4-1.5-1.6-2.7-3.5-3.5-5.6-.8-2.1-1.2-4.5-1.2-7.3 0-3.4.8-6.4 2.4-9 1.6-2.6 3.8-4.8 6.5-6.6 2.7-1.8 5.8-3.1 9.3-4 3.5-.9 7-1.3 10.7-1.3 6.5 0 12.4 1 17.6 3v14c-5-3.4-10.7-5.1-17.2-5.1-2 0-3.9.2-5.5.6-1.6.4-3 1-4.2 1.7-1.2.7-2.1 1.6-2.7 2.7-.6 1-1 2.2-1 3.4 0 1.5.3 2.8 1 3.9.6 1.1 1.6 2 2.9 2.8 1.3.8 2.8 1.5 4.6 2.2 1.8.7 3.8 1.4 6.1 2.2 3 1.2 5.8 2.5 8.2 3.8 2.4 1.3 4.5 2.8 6.2 4.4 1.7 1.6 3 3.5 3.9 5.7.9 2.1 1.4 4.7 1.4 7.6 0 3.6-.8 6.7-2.5 9.4a20.8 20.8 0 01-6.6 6.6c-2.8 1.8-6 3.1-9.6 3.9-3.6.9-7.4 1.3-11.4 1.3-7.7.3-14.4-1-20.1-3.6zM879.4 226.4c-10.9 0-19.7-3.3-26.2-9.9-6.5-6.6-9.8-15.4-9.8-26.3 0-11.9 3.4-21.2 10.2-27.9 6.8-6.7 16-10 27.5-10 11.1 0 19.7 3.3 25.9 9.8 6.2 6.5 9.3 15.5 9.3 27 0 11.3-3.3 20.3-10 27.1-6.7 6.8-15.7 10.2-26.9 10.2zm.7-61.4c-6.3 0-11.2 2.2-14.9 6.6-3.6 4.4-5.5 10.4-5.5 18.1 0 7.4 1.8 13.3 5.5 17.5 3.7 4.3 8.6 6.4 14.8 6.4 6.3 0 11.2-2.1 14.6-6.3 3.4-4.2 5.1-10.2 5.1-17.9 0-7.8-1.7-13.8-5.1-18.1-3.3-4.2-8.2-6.3-14.5-6.3zM967.3 132.9c-2.2-1.2-4.6-1.9-7.4-1.9-7.8 0-11.7 4.4-11.7 13.2v9.6h16.5v12.6h-16.4v58.2h-16v-58.2h-12.1v-12.6h12.1v-11.5c0-7.5 2.4-13.4 7.3-17.7 4.9-4.3 11-6.5 18.3-6.5 4 0 7.1.4 9.4 1.3v13.5zM1013 223.9c-3.1 1.6-7.3 2.4-12.4 2.4-13.7 0-20.6-6.6-20.6-19.8v-40h-11.8v-12.6H980v-16.4l16-4.6v21h16.9v12.6H996v35.4c0 4.2.8 7.2 2.3 9 1.5 1.8 4.1 2.7 7.6 2.7 2.7 0 5.1-.8 7.1-2.4v12.7zM1125.3 139.5h-28.5v85.2h-16.5v-85.2h-28.4v-14h73.4v14zM1181.2 193.6H1133c.2 6.5 2.2 11.6 6.1 15.1 3.8 3.6 9.1 5.3 15.9 5.3 7.6 0 14.5-2.3 20.8-6.8v12.9c-6.5 4.1-15 6.1-25.6 6.1-10.4 0-18.6-3.2-24.5-9.6-5.9-6.4-8.9-15.5-8.9-27.1 0-11 3.3-20 9.8-26.9 6.5-6.9 14.6-10.4 24.3-10.4 9.7 0 17.2 3.1 22.5 9.3 5.3 6.2 8 14.9 8 25.9v6.2zm-15.4-11.3c0-5.8-1.4-10.2-4.1-13.5-2.7-3.2-6.4-4.8-11.1-4.8-4.6 0-8.5 1.7-11.7 5-3.2 3.4-5.2 7.8-5.9 13.2h32.8zM1247.9 224.7h-15.6v-11.1h-.3c-4.9 8.5-12.1 12.7-21.5 12.7-7 0-12.4-1.9-16.4-5.7-3.9-3.8-5.9-8.8-5.9-15 0-13.4 7.7-21.2 23.1-23.4l21-3c0-10.1-4.8-15.1-14.4-15.1-8.4 0-16 2.9-22.8 8.7v-14c7.5-4.4 16.1-6.6 25.9-6.6 17.9 0 26.8 8.8 26.8 26.4v46.1zm-15.5-34.8l-14.9 2.1c-4.6.6-8.1 1.7-10.4 3.4-2.3 1.6-3.5 4.5-3.5 8.6 0 3 1.1 5.5 3.2 7.4 2.1 1.9 5 2.9 8.6 2.9 4.9 0 8.9-1.7 12.1-5.2 3.2-3.4 4.8-7.8 4.8-13v-6.2zM1370.4 224.7h-16v-38.6c0-7.4-1-12.8-3.1-16.1-2.1-3.3-5.6-5-10.6-5-4.2 0-7.8 2.1-10.7 6.3-2.9 4.2-4.4 9.2-4.4 15.1v38.3h-16.1v-39.9c0-13.2-4.7-19.8-14-19.8-4.3 0-7.9 2-10.7 5.9-2.8 4-4.2 9.1-4.2 15.4v38.3h-16v-70.8h16V165h.3c5.1-8.6 12.6-12.9 22.3-12.9 4.9 0 9.2 1.3 12.8 4 3.7 2.7 6.2 6.2 7.5 10.6 5.3-9.8 13.1-14.7 23.5-14.7 15.6 0 23.4 9.6 23.4 28.8v43.9zM1382.6 222.5v-14.9c6 4.6 12.6 6.8 19.8 6.8 9.7 0 14.5-2.9 14.5-8.6 0-1.6-.4-3-1.2-4.1-.8-1.1-1.9-2.1-3.4-3-1.4-.9-3.1-1.7-5-2.4s-4-1.5-6.4-2.4c-2.9-1.2-5.5-2.4-7.8-3.7-2.3-1.3-4.3-2.8-5.8-4.4-1.5-1.6-2.7-3.5-3.5-5.6-.8-2.1-1.2-4.5-1.2-7.3 0-3.4.8-6.4 2.4-9 1.6-2.6 3.8-4.8 6.5-6.6 2.7-1.8 5.8-3.1 9.3-4 3.5-.9 7-1.3 10.7-1.3 6.5 0 12.4 1 17.6 3v14c-5-3.4-10.7-5.1-17.2-5.1-2 0-3.9.2-5.5.6-1.6.4-3 1-4.2 1.7-1.2.7-2.1 1.6-2.7 2.7-.6 1-1 2.2-1 3.4 0 1.5.3 2.8 1 3.9.6 1.1 1.6 2 2.9 2.8 1.3.8 2.8 1.5 4.6 2.2 1.8.7 3.8 1.4 6.1 2.2 3 1.2 5.8 2.5 8.2 3.8 2.4 1.3 4.5 2.8 6.2 4.4 1.7 1.6 3 3.5 3.9 5.7.9 2.1 1.4 4.7 1.4 7.6 0 3.6-.8 6.7-2.5 9.4a20.8 20.8 0 01-6.6 6.6c-2.8 1.8-6 3.1-9.6 3.9-3.6.9-7.4 1.3-11.4 1.3-7.7.3-14.5-1-20.1-3.6z"/></g></svg>